<svg width="21" height="22" viewBox="0 0 21 22" fill="none" xmlns="http://www.w3.org/2000/svg">
<path d="M7.63478 19.7733V16.7156C7.63478 15.9351 8.27217 15.3023 9.05844 15.3023H11.9326C12.3102 15.3023 12.6723 15.4512 12.9393 15.7163C13.2063 15.9813 13.3563 16.3408 13.3563 16.7156V19.7733C13.3539 20.0978 13.4821 20.4099 13.7124 20.6402C13.9427 20.8705 14.256 21 14.5829 21H16.5438C17.4596 21.0024 18.3388 20.6428 18.9872 20.0008C19.6356 19.3588 20 18.487 20 17.5778V8.86686C20 8.13246 19.6721 7.43584 19.1046 6.96467L12.434 1.67587C11.2737 0.748562 9.61111 0.778502 8.48539 1.74698L1.96701 6.96467C1.37274 7.42195 1.01755 8.12064 1 8.86686V17.5689C1 19.4639 2.54738 21 4.45617 21H6.37229C7.05123 21 7.603 20.4562 7.60792 19.7822L7.63478 19.7733Z" stroke="#484848" stroke-width="1.5"/>
</svg>
