<svg width="21" height="20" viewBox="0 0 21 20" fill="none" xmlns="http://www.w3.org/2000/svg">
<path d="M12.1668 6.66658H4.38905C4.24171 6.66658 4.1004 6.60805 3.99621 6.50387C3.89203 6.39968 3.8335 6.25837 3.8335 6.11103V3.88881C3.8335 3.74146 3.89203 3.60016 3.99621 3.49597C4.1004 3.39178 4.24171 3.33325 4.38905 3.33325H12.1668C12.3142 3.33325 12.4555 3.39178 12.5597 3.49597C12.6639 3.60016 12.7224 3.74146 12.7224 3.88881V6.11103C12.7224 6.25837 12.6639 6.39968 12.5597 6.50387C12.4555 6.60805 12.3142 6.66658 12.1668 6.66658ZM4.94461 5.55547H11.6113V4.41103H4.94461V5.55547Z" fill="#176CD4"/>
<path d="M12.1668 7.82227H4.38905C4.24171 7.82227 4.1004 7.8808 3.99621 7.98498C3.89203 8.08917 3.8335 8.23048 3.8335 8.37782V10.5556C3.8335 10.7029 3.89203 10.8442 3.99621 10.9484C4.1004 11.0526 4.24171 11.1112 4.38905 11.1112H10.7002L12.7224 9.0556V8.37782C12.7224 8.23048 12.6639 8.08917 12.5597 7.98498C12.4555 7.8808 12.3142 7.82227 12.1668 7.82227ZM11.6113 10H4.94461V8.88893H11.6113V10Z" fill="#176CD4"/>
<path d="M6.64466 17.5055V17.4722L6.82244 16.7H2.72244V2.2222H13.8336V7.91664L14.9447 6.86664V1.66664C14.9447 1.5193 14.8861 1.37799 14.7819 1.2738C14.6778 1.16962 14.5364 1.11108 14.3891 1.11108H2.16688C2.01954 1.11108 1.87823 1.16962 1.77405 1.2738C1.66986 1.37799 1.61133 1.5193 1.61133 1.66664V17.2222C1.61133 17.3695 1.66986 17.5108 1.77405 17.615C1.87823 17.7192 2.01954 17.7778 2.16688 17.7778H6.61133C6.61583 17.6863 6.62697 17.5953 6.64466 17.5055Z" fill="#176CD4"/>
<path d="M12.7224 10.6499L12.2891 11.0888C12.3966 11.0666 12.4951 11.0131 12.5722 10.935C12.6494 10.8569 12.7016 10.7577 12.7224 10.6499Z" fill="#176CD4"/>
<path d="M3.8335 14.9666C3.8335 15.114 3.89203 15.2553 3.99621 15.3594C4.1004 15.4636 4.24171 15.5222 4.38905 15.5222H7.07794L7.24461 14.7999L7.31683 14.4944V14.4666H4.94461V13.3333H8.46683L9.57794 12.2222H4.38905C4.24171 12.2222 4.1004 12.2807 3.99621 12.3849C3.89203 12.4891 3.8335 12.6304 3.8335 12.7777V14.9666Z" fill="#176CD4"/>
<path d="M19.1055 9.26104L17.2332 7.38882C17.1502 7.3055 17.0514 7.2394 16.9428 7.1943C16.8341 7.14919 16.7176 7.12598 16.5999 7.12598C16.4822 7.12598 16.3657 7.14919 16.2571 7.1943C16.1484 7.2394 16.0497 7.3055 15.9666 7.38882L8.34991 15.0499L7.72213 17.7222C7.69863 17.8374 7.6981 17.9562 7.72058 18.0717C7.74305 18.1872 7.78809 18.2971 7.85312 18.3952C7.91814 18.4932 8.00187 18.5775 8.09951 18.6431C8.19716 18.7088 8.30679 18.7545 8.42213 18.7777C8.4794 18.7833 8.53708 18.7833 8.59435 18.7777C8.66246 18.7883 8.7318 18.7883 8.79991 18.7777L11.4944 18.1833L19.1055 10.5555C19.1886 10.4729 19.2546 10.3746 19.2996 10.2664C19.3447 10.1582 19.3678 10.0421 19.3678 9.92493C19.3678 9.80772 19.3447 9.69167 19.2996 9.58345C19.2546 9.47523 19.1886 9.37699 19.1055 9.29438V9.26104ZM10.9277 17.1722L8.89435 17.6222L9.3888 15.6055L15.0999 9.83326L16.6666 11.3999L10.9277 17.1722ZM17.2944 10.7722L15.7277 9.20549L16.611 8.33326L18.1888 9.91104L17.2944 10.7722Z" fill="#176CD4"/>
</svg>
