<svg width="20" height="20" viewBox="0 0 20 20" fill="none" xmlns="http://www.w3.org/2000/svg">
<path d="M4.10728 2.4999C3.68104 2.4999 3.27226 2.66922 2.97086 2.97062C2.66946 3.27201 2.50014 3.6808 2.50014 4.10704V6.2499C2.50014 6.39198 2.4437 6.52824 2.34323 6.6287C2.24277 6.72917 2.10651 6.78561 1.96443 6.78561C1.82234 6.78561 1.68608 6.72917 1.58562 6.6287C1.48515 6.52824 1.42871 6.39198 1.42871 6.2499V4.10704C1.42871 3.39664 1.71092 2.71533 2.21325 2.213C2.71558 1.71067 3.39688 1.42847 4.10728 1.42847H6.25014C6.39222 1.42847 6.52848 1.48491 6.62895 1.58537C6.72941 1.68584 6.78585 1.8221 6.78585 1.96418C6.78585 2.10626 6.72941 2.24252 6.62895 2.34299C6.52848 2.44345 6.39222 2.4999 6.25014 2.4999H4.10728ZM4.10728 17.4999C3.68104 17.4999 3.27226 17.3306 2.97086 17.0292C2.66946 16.7278 2.50014 16.319 2.50014 15.8928V13.7499C2.50014 13.6078 2.4437 13.4716 2.34323 13.3711C2.24277 13.2706 2.10651 13.2142 1.96443 13.2142C1.82234 13.2142 1.68608 13.2706 1.58562 13.3711C1.48515 13.4716 1.42871 13.6078 1.42871 13.7499V15.8928C1.42871 16.6032 1.71092 17.2845 2.21325 17.7868C2.71558 18.2891 3.39688 18.5713 4.10728 18.5713H6.25014C6.39222 18.5713 6.52848 18.5149 6.62895 18.4144C6.72941 18.3139 6.78585 18.1777 6.78585 18.0356C6.78585 17.8935 6.72941 17.7573 6.62895 17.6568C6.52848 17.5563 6.39222 17.4999 6.25014 17.4999H4.10728ZM17.5001 4.10704C17.5001 3.6808 17.3308 3.27201 17.0294 2.97062C16.728 2.66922 16.3192 2.4999 15.893 2.4999H13.7501C13.6081 2.4999 13.4718 2.44345 13.3713 2.34299C13.2709 2.24252 13.2144 2.10626 13.2144 1.96418C13.2144 1.8221 13.2709 1.68584 13.3713 1.58537C13.4718 1.48491 13.6081 1.42847 13.7501 1.42847H15.893C16.6034 1.42847 17.2847 1.71067 17.787 2.213C18.2894 2.71533 18.5716 3.39664 18.5716 4.10704V6.2499C18.5716 6.39198 18.5151 6.52824 18.4147 6.6287C18.3142 6.72917 18.1779 6.78561 18.0359 6.78561C17.8938 6.78561 17.7575 6.72917 17.657 6.6287C17.5566 6.52824 17.5001 6.39198 17.5001 6.2499V4.10704ZM15.893 17.4999C16.3192 17.4999 16.728 17.3306 17.0294 17.0292C17.3308 16.7278 17.5001 16.319 17.5001 15.8928V13.7499C17.5001 13.6078 17.5566 13.4716 17.657 13.3711C17.7575 13.2706 17.8938 13.2142 18.0359 13.2142C18.1779 13.2142 18.3142 13.2706 18.4147 13.3711C18.5151 13.4716 18.5716 13.6078 18.5716 13.7499V15.8928C18.5716 16.6032 18.2894 17.2845 17.787 17.7868C17.2847 18.2891 16.6034 18.5713 15.893 18.5713H13.7501C13.6081 18.5713 13.4718 18.5149 13.3713 18.4144C13.2709 18.3139 13.2144 18.1777 13.2144 18.0356C13.2144 17.8935 13.2709 17.7573 13.3713 17.6568C13.4718 17.5563 13.6081 17.4999 13.7501 17.4999H15.893ZM11.6666 10.0642C11.6666 10.997 10.9209 11.7528 10.0001 11.7528C9.07942 11.7528 8.33371 10.997 8.33371 10.0649C8.33371 9.13275 9.07871 8.37632 10.0001 8.37632C10.9216 8.37632 11.6666 9.13204 11.6666 10.0642ZM7.73085 5.70061C7.94228 5.27204 8.37514 5.00061 8.84871 5.00061H11.1516C11.6251 5.00061 12.0587 5.27204 12.2694 5.70061L12.7573 6.68918H13.3337C14.2537 6.68918 15.0001 7.44489 15.0001 8.37704V12.5985C15.0001 13.5292 14.2537 14.2856 13.3337 14.2856H6.66657C5.74657 14.2856 5.00014 13.5299 5.00014 12.597V8.37632C5.00014 7.44418 5.74657 6.68847 6.66657 6.68847H7.24228L7.73085 5.70061ZM12.5001 10.0649C12.5001 8.66704 11.3809 7.53347 10.0001 7.53347C8.61942 7.53347 7.50014 8.66704 7.50014 10.0656C7.50014 11.4642 8.61942 12.5978 10.0001 12.5978C11.3809 12.5978 12.5001 11.4642 12.5001 10.0656" fill="#176CD4"/>
</svg>
